<svg width="512" height="289" viewBox="0 0 512 289" fill="none" xmlns="http://www.w3.org/2000/svg">
<g clip-path="url(#clip0_343_533)">
<path d="M410.485 168.102L409.375 169.617L403.667 177.527H393.547C381.778 176.959 376.651 168.602 376.827 161.084C377.016 153.566 382.657 145.467 394.603 145.467H410.498L403.545 154.689H394.603C389.503 154.689 387.162 158.137 387.149 161.328C387.122 164.559 389.462 168.062 394.603 168.102H410.485Z" fill="white"/>
<path d="M100.298 125.86V177.54H100.582H110.187H110.471V125.86H100.298Z" fill="white"/>
<path d="M330.588 126.144V136.353H356.142L328.409 177.391L328.301 177.54H328.653H339.99H340.328L375.041 126.144H330.588Z" fill="white"/>
<path d="M351.137 167.778V177.541H372.741V167.778H351.137Z" fill="white"/>
<path d="M200.108 126.144L182.089 177.54H170.698L188.501 126.144H200.108Z" fill="white"/>
<path d="M160.038 126.144H148.431L155.127 145.358L162.757 167.264H174.148L160.038 126.144Z" fill="white"/>
<path d="M222.7 146.954H237.636C235.877 139.26 229.559 135.785 223.918 135.785C220.103 135.785 216.45 137.3 213.867 139.936C210.999 142.857 209.524 146.995 209.632 151.876C209.903 162.802 217.343 167.778 224.134 167.778H237.581L231.386 177.54H224.134C207.644 177.54 198.904 164.641 198.796 151.903C198.701 144.371 201.069 137.949 205.641 133.311C210.133 128.754 216.68 126.158 223.593 126.158C235.363 126.158 248.039 133.852 248.39 150.767L244.603 156.73H216.099L222.7 146.968V146.954Z" fill="white"/>
<path d="M93.2225 125.86H83.0493V177.54H93.2225V125.86Z" fill="white"/>
<path d="M415.571 131.147C412.216 127.915 407.806 126.144 403.18 126.144C402.963 126.144 402.747 126.144 402.544 126.144H384.971V136.258H403.64C405.479 136.366 407.225 137.137 408.564 138.435C410.187 140.004 411.08 142.127 411.08 144.412V171.983L421.199 178.257V144.412C421.199 139.409 419.143 134.568 415.571 131.147Z" fill="white"/>
<path d="M327.287 167.588L320.563 177.54H310.011C307.184 177.54 304.546 176.35 302.665 174.214C301.042 172.375 300.23 169.968 300.23 167.521V136.556H293.344V126.144H322.241V136.556H310.417V164.897C310.417 166.236 311.391 167.439 312.717 167.575C312.812 167.575 312.906 167.575 313.001 167.575H327.3L327.287 167.588Z" fill="white"/>
<path d="M83.0358 110.729V125.117L93.2225 118.843V110.729H83.0358Z" fill="#0296F6"/>
<path d="M300.23 111.013V125.414L310.403 119.126V111.013H300.23Z" fill="#0296F6"/>
<path d="M141.369 130.918C138.014 127.686 133.604 125.915 128.977 125.915C128.761 125.915 128.545 125.915 128.342 125.915H119.237L110.999 136.029H129.424C131.264 136.137 133.009 136.908 134.348 138.192C135.972 139.761 136.864 141.884 136.864 144.169V177.527H146.983V144.169C146.983 139.166 144.927 134.325 141.356 130.904L141.369 130.918Z" fill="white"/>
<path d="M263.177 177.527L252.855 167.115H279.262C280.615 167.115 281.859 166.628 282.86 165.682C283.888 164.722 284.429 163.478 284.429 162.071C284.429 160.665 283.888 159.421 282.86 158.461C281.859 157.528 280.615 157.028 279.262 157.028H266.965C264.881 157.028 262.879 156.622 261.053 155.824C259.199 155.027 257.549 153.904 256.156 152.512C254.762 151.119 253.639 149.456 252.841 147.59C252.043 145.724 251.637 143.709 251.637 141.573C251.637 139.436 252.043 137.475 252.841 135.623C253.639 133.757 254.762 132.094 256.156 130.701C257.563 129.308 259.213 128.172 261.066 127.348C262.893 126.536 264.881 126.117 266.965 126.117H286.31V136.529H266.965C265.585 136.529 264.354 137.029 263.393 137.989C262.433 138.949 261.932 140.18 261.932 141.559C261.932 142.938 262.433 144.155 263.366 145.156C264.327 146.183 265.571 146.724 266.978 146.724H279.275C281.413 146.724 283.442 147.13 285.295 147.928C287.162 148.726 288.826 149.848 290.22 151.241C291.613 152.633 292.736 154.283 293.534 156.135C294.332 157.974 294.738 159.962 294.738 162.044C294.738 164.127 294.332 166.209 293.534 168.062C292.736 169.928 291.613 171.591 290.22 172.984C288.826 174.376 287.176 175.485 285.295 176.296C283.442 177.094 281.413 177.5 279.275 177.5H263.177V177.527Z" fill="white"/>
<path d="M423.431 131.256H424.703L425.596 133.081H426.543L425.555 131.053C425.758 130.945 425.92 130.809 426.056 130.634C426.272 130.336 426.38 129.971 426.38 129.565C426.38 129.281 426.326 129.024 426.231 128.795C426.137 128.565 425.988 128.362 425.785 128.213C425.582 128.064 425.339 127.956 425.055 127.916C424.987 127.916 424.919 127.902 424.852 127.889C424.784 127.889 424.73 127.889 424.676 127.889H422.606V133.067H423.445V131.242L423.431 131.256ZM425.528 129.579C425.528 129.701 425.501 129.822 425.46 129.944C425.42 130.066 425.352 130.16 425.271 130.241C425.19 130.323 425.068 130.377 424.933 130.417C424.892 130.417 424.838 130.431 424.784 130.444C424.73 130.444 424.689 130.444 424.649 130.444H423.431V128.7H424.649C424.649 128.7 424.743 128.7 424.798 128.7C424.852 128.7 424.892 128.7 424.946 128.727C425.082 128.754 425.19 128.808 425.285 128.903C425.379 128.984 425.433 129.092 425.474 129.2C425.515 129.322 425.542 129.444 425.542 129.565L425.528 129.579Z" fill="white"/>
<path d="M424.419 126.036C421.916 126.036 419.887 128.064 419.887 130.566C419.887 133.067 421.916 135.096 424.419 135.096C426.921 135.096 428.951 133.067 428.951 130.566C428.951 128.064 426.908 126.036 424.419 126.036ZM424.419 126.793C426.502 126.793 428.193 128.484 428.193 130.566C428.193 132.648 426.502 134.338 424.419 134.338C422.335 134.338 420.644 132.648 420.644 130.566C420.644 128.484 422.335 126.793 424.419 126.793Z" fill="white"/>
</g>
<defs>
<clipPath id="clip0_343_533">
<rect width="512" height="289" fill="white"/>
</clipPath>
</defs>
</svg>
